<svg width="59" height="46" viewBox="0 0 59 46" fill="none" xmlns="http://www.w3.org/2000/svg">
<path d="M47.3953 20.9249L29.5461 17.4712C28.9187 18.5116 27.6666 19.0829 26.4004 18.8271C25.4067 18.6509 24.6232 18.0084 24.2314 17.1642C23.956 16.6042 23.8651 15.9475 23.9815 15.2824C24.3137 13.6422 25.9007 12.5506 27.5502 12.8804C28.8221 13.139 29.7704 14.1197 29.9606 15.3506L46.7763 18.5798L42.2026 1.94198C42.2026 1.94198 42.055 1.88513 41.7682 1.78848C41.7569 1.78848 41.7342 1.78849 41.7228 1.77712C38.7077 1.18301 34.1567 0.804932 29.0691 0.804932C24.0326 0.804932 19.527 1.17164 16.512 1.75437C16.5006 1.76574 16.4779 1.76574 16.4779 1.76574C16.1344 1.86238 15.9413 1.94198 15.9413 1.94198L14.8738 5.85341H14.8852L33.6996 9.31855H33.711C34.0432 8.75856 34.5684 8.32364 35.1731 8.09055C35.6927 7.89156 36.2747 7.83187 36.8567 7.95411C37.8503 8.1474 38.6481 8.81827 39.0427 9.68526C39.1506 9.91836 39.2301 10.1543 39.2756 10.4101C39.3437 10.7825 39.321 11.1122 39.2415 11.5074C39.196 11.7774 39.1166 12.0332 38.9973 12.2663C38.9519 12.363 38.9065 12.454 38.8554 12.5478H38.8326C38.2052 13.5938 36.9873 14.1652 35.6926 13.898C34.523 13.699 33.6429 12.8235 33.3731 11.7319C33.3391 11.6523 33.3164 11.5671 33.305 11.4875L14.3032 7.95411L11.3222 18.7134L28.8448 21.9767H28.8732C29.1429 21.5191 29.5461 21.1353 30.0259 20.8908C30.6136 20.5696 31.3148 20.4445 32.0132 20.5924C33.2823 20.8425 34.2391 21.8374 34.4349 23.0569C34.4974 23.4065 34.4747 23.7761 34.4122 24.1428C34.3327 24.5095 34.2249 24.879 34.0062 25.1832H33.9835C33.3731 26.2179 32.1438 26.8006 30.8606 26.5448C29.6 26.3117 28.6631 25.3281 28.4729 24.12L10.8764 20.8681L0 24.2366C0 24.2366 0.0113635 24.248 0.034076 24.248C0.29243 24.3901 2.20879 25.4191 5.36583 26.6272C6.45603 27.0394 7.67398 27.4743 9.03673 27.8893C10.0758 28.2106 11.2115 28.5346 12.384 28.8388C12.5203 28.8729 12.6537 28.907 12.7956 28.9354C12.7956 28.9354 12.807 28.9354 12.8127 28.9411C10.8651 30.6381 9.63293 33.1425 9.63293 35.9339C9.63293 41.0506 13.7723 45.1952 18.8826 45.1952C23.4052 45.1952 27.167 41.9489 27.9676 37.6537L30.5369 39.0437C31.8088 42.6283 35.2299 45.1952 39.25 45.1952C44.3603 45.1952 48.4996 41.0506 48.4996 35.9339C48.4996 33.1396 47.2675 30.6353 45.3142 28.9411C45.3596 28.9297 45.3994 28.9184 45.4448 28.907C45.547 28.8843 45.6606 28.8615 45.76 28.8388C46.9524 28.5346 48.0596 28.2106 49.0959 27.8893C50.4614 27.4715 51.6879 27.0366 52.7668 26.6272C55.9351 25.422 57.8487 24.3929 58.1042 24.248H58.1099C58.1212 24.2366 58.1326 24.2366 58.1326 24.2366L47.3953 20.9249ZM18.8797 42.7676C15.1123 42.7676 12.0632 39.7032 12.0632 35.9311C12.0632 33.1538 13.7127 30.7689 16.089 29.7001C16.265 29.7342 16.4325 29.7683 16.6028 29.8081C16.9918 29.8706 17.375 29.9275 17.7612 30.0185C17.7839 30.0185 17.7952 30.0298 17.8179 30.0298H17.8293C17.9712 30.0526 18.1388 30.0867 18.275 30.1094C18.3091 30.1094 18.3432 30.1208 18.3772 30.1208H18.3943C18.3943 30.1208 18.61 30.1378 18.6498 30.1378C18.7861 30.1606 18.9876 30.1833 19.2204 30.2174C19.2999 30.2288 19.3851 30.2288 19.4788 30.2402C19.5696 30.2516 19.6662 30.2629 19.7712 30.2743C20.075 30.3084 20.4157 30.3425 20.7989 30.3709C20.9295 30.3937 21.0743 30.4164 21.2106 30.4278C21.5428 30.4733 21.9005 30.5074 22.2497 30.5415C22.5535 30.5813 22.8601 30.604 23.1752 30.6154C24.7225 31.8662 25.7105 33.7764 25.7105 35.9254C25.7077 39.7032 22.6529 42.7676 18.8797 42.7676ZM30.006 35.4734L28.0016 34.4217C27.7915 33.0942 27.2947 31.8661 26.5736 30.7973C26.7099 30.7973 26.8461 30.803 26.9853 30.803C27.0988 30.803 27.2067 30.8144 27.3118 30.8144C27.678 30.8257 28.0471 30.8258 28.4133 30.8258C28.6064 30.8258 28.7852 30.8257 28.9612 30.8144H29.1713C29.3701 30.8257 29.5887 30.8258 29.7988 30.8258C30.1196 30.8258 30.4546 30.8257 30.7924 30.8144C30.9571 30.8144 31.136 30.803 31.3006 30.803C31.3801 30.7973 31.4596 30.7916 31.5476 30.7973C30.6476 32.1476 30.094 33.748 30.006 35.4734ZM46.0751 35.9311C46.0751 39.7032 43.0203 42.7676 39.2472 42.7676C35.4797 42.7676 32.4306 39.7032 32.4306 35.9311C32.4306 33.7821 33.4186 31.8718 34.9602 30.6211C35.633 30.5927 36.2974 30.5187 36.9418 30.4221C37.0781 30.4107 37.2087 30.3994 37.3365 30.3766C37.4784 30.3653 37.6289 30.3596 37.7595 30.3482C38.1257 30.3027 38.438 30.2686 38.7077 30.2459C39.0456 30.2004 39.3011 30.1663 39.48 30.1435C39.5027 30.1435 39.5595 30.1265 39.5822 30.1265C39.69 30.1265 39.7355 30.1265 39.7355 30.1265H39.7582C39.7809 30.1265 39.8036 30.1265 39.8263 30.1151C39.9683 30.1037 40.1244 30.0582 40.3118 30.0355C40.3345 30.0355 40.3572 30.0241 40.3799 30.0241C40.7746 29.9332 41.1408 29.8763 41.5326 29.8138C41.7029 29.774 41.8704 29.7342 42.0408 29.7001C44.4199 30.7632 46.0751 33.1482 46.0751 35.9311Z" fill="#BAFF00"/>
<path d="M16.2256 40.8515C18.9369 42.3269 22.3296 41.3092 23.803 38.5945C25.2651 35.8684 24.2601 32.4715 21.5375 31.0076L16.2256 40.8515Z" fill="#BAFF00"/>
<path d="M36.5898 40.8515C39.3011 42.3269 42.6938 41.3092 44.1673 38.5945C45.6294 35.8684 44.6244 32.4715 41.9017 31.0076L36.5898 40.8515Z" fill="#BAFF00"/>
<path d="M28.1853 17.4371H25.8857V16.7548H26.6835V14.9384L25.9339 15.163V14.4353L26.973 14.0515H27.4415V16.7548H28.1853V17.4371Z" fill="#BAFF00"/>
<path d="M37.8042 10.9275C37.8042 11.9537 37.2477 12.6956 36.3307 12.6956C35.4137 12.6956 34.8516 11.9537 34.8516 10.9275C34.8516 9.90135 35.4137 9.15942 36.3307 9.15942C37.2477 9.15942 37.8042 9.90135 37.8042 10.9275ZM37.0462 10.9275C37.0462 10.342 36.7992 9.89282 36.325 9.89282C35.8481 9.89282 35.5982 10.342 35.5982 10.9275C35.5982 11.516 35.8452 11.9622 36.325 11.9622C36.7963 11.9622 37.0462 11.516 37.0462 10.9275Z" fill="#BAFF00"/>
<path d="M32.9018 23.5884C32.9018 24.6146 32.3454 25.3565 31.4284 25.3565C30.5114 25.3565 29.9492 24.6146 29.9492 23.5884C29.9492 22.5622 30.5114 21.8203 31.4284 21.8203C32.3454 21.8232 32.9018 22.5651 32.9018 23.5884ZM32.1438 23.5884C32.1438 23.0028 31.8968 22.5537 31.4227 22.5537C30.9457 22.5537 30.6959 23.0028 30.6959 23.5884C30.6959 24.1768 30.9429 24.6231 31.4227 24.6231C31.8968 24.6231 32.1438 24.1768 32.1438 23.5884Z" fill="#BAFF00"/>
</svg>
