<svg width="56" height="56" viewBox="0 0 56 56" fill="none" xmlns="http://www.w3.org/2000/svg">
<rect width="56" height="56" rx="28" fill="#BAFF00" fill-opacity="0.1"/>
<g clip-path="url(#clip0_0_28)">
<path d="M26.6253 13.0625C26.0128 13.1937 25.4378 13.3937 25.244 13.55C25.094 13.6812 25.0628 14.0687 25.194 14.225C25.3753 14.4437 25.5503 14.45 26.1128 14.2562C26.9003 13.9875 27.4065 13.9187 28.2753 13.9562C29.1378 13.9937 29.7065 14.1312 30.394 14.475C31.8815 15.225 32.9565 16.525 33.3878 18.1187C33.5815 18.8187 33.5753 20.0875 33.3815 20.8062C33.0878 21.9187 32.6003 22.7187 31.7315 23.5312C31.4128 23.8312 31.1253 24.1375 31.0815 24.2062C31.0315 24.2937 31.0065 24.6375 31.0003 25.1437C31.0003 26.325 30.844 26.5625 30.069 26.5625H29.7003L29.6753 25.85C29.6503 25.0125 29.5815 24.875 29.1753 24.875C28.7565 24.875 28.6878 25.0062 28.6878 25.8437V26.5625H28.0003H27.3128V25.8437C27.3128 25.0062 27.244 24.875 26.8253 24.875C26.419 24.875 26.3503 25.0125 26.3253 25.85L26.3003 26.5625H25.9315C25.1565 26.5625 25.0003 26.325 25.0003 25.1562C25.0003 24.7125 24.969 24.3125 24.9315 24.2375C24.894 24.1687 24.5503 23.8 24.169 23.4187C23.6565 22.9062 23.394 22.5875 23.2003 22.2375C22.0003 20.1 22.2565 17.6 23.869 15.7937C24.194 15.4312 24.2503 15.3375 24.2503 15.125C24.2503 14.9375 24.2128 14.8562 24.0878 14.7562C23.8253 14.55 23.6565 14.5875 23.2815 14.9437C22.7128 15.4812 22.1378 16.4062 21.8128 17.2937L21.669 17.6875H17.3503C14.5753 17.6875 12.9503 17.7125 12.8003 17.75C12.669 17.7875 12.4815 17.8875 12.3753 17.9812C11.994 18.3 12.0003 18.25 12.0003 21.0625C12.0003 23.5437 12.0065 23.6312 12.1253 23.75C12.2003 23.825 12.3315 23.875 12.469 23.875C12.6065 23.875 12.7378 23.825 12.8128 23.75C12.9315 23.6312 12.9378 23.5437 12.9378 21.275C12.9378 19.7812 12.9628 18.8875 13.0003 18.8062C13.0628 18.6937 13.1815 18.6875 17.269 18.6875H21.469L21.4753 19.5812C21.4815 20.3125 21.5128 20.575 21.644 21.075C21.9878 22.3812 22.7565 23.6125 23.7565 24.475L23.9878 24.6687L24.0128 25.5062C24.0315 26.3062 24.044 26.3625 24.2253 26.6875C24.4315 27.0625 24.844 27.3875 25.2378 27.5C25.5503 27.5812 30.4503 27.5812 30.7628 27.5C31.1565 27.3875 31.569 27.0625 31.7753 26.6875C31.9565 26.3625 31.969 26.3062 31.9878 25.5125L32.0128 24.675L32.269 24.4437C33.319 23.5 34.0128 22.3812 34.3565 21.0812C34.4878 20.575 34.519 20.3187 34.5253 19.5812L34.5315 18.6875H38.7315C42.819 18.6875 42.9378 18.6937 43.0003 18.8062C43.044 18.8875 43.0628 21.4187 43.0628 26.5562V34.1812L40.2753 34.2L37.4878 34.2187L37.3378 34.3937C37.1565 34.6062 37.144 34.8062 37.319 35.025L37.444 35.1875H40.2565H43.0628V35.7125C43.0628 36 43.044 36.2812 43.0253 36.3375C42.9878 36.4312 41.6065 36.4375 28.0003 36.4375C14.394 36.4375 13.0128 36.4312 12.9753 36.3375C12.9565 36.2812 12.9378 36 12.9378 35.7125V35.1875H24.344H35.744L35.8753 35.05C36.1128 34.7875 36.0128 34.375 35.6815 34.2562C35.5378 34.2062 32.2753 34.1875 24.2128 34.1875H12.9378V29.7625C12.9378 25.375 12.9378 25.3312 12.8128 25.2187C12.7378 25.15 12.5878 25.1 12.469 25.1C12.3503 25.1 12.2003 25.15 12.1253 25.2187C12.0003 25.3312 12.0003 25.3625 12.0003 31.0125C12.0003 37.3062 11.9753 36.8937 12.419 37.2312L12.644 37.4062L17.7003 37.425C20.4753 37.4312 22.7503 37.4562 22.7503 37.475C22.7503 37.5 22.4628 38.0562 22.1128 38.7187L21.469 39.925L20.3753 39.95C19.1503 39.9687 19.0378 40.0062 18.844 40.4125C18.7565 40.5937 18.744 40.8 18.7628 41.6312L18.7815 42.6375L19.0128 42.85L19.2503 43.0625H22.0878H24.9315L25.0565 42.9C25.2315 42.6812 25.219 42.4812 25.0378 42.2687L24.8878 42.0937L22.319 42.075L19.7503 42.0562V41.5V40.9375H27.9378H36.1253V41.5V42.0625L31.369 42.075L26.6128 42.0937L26.494 42.2437C26.3378 42.4375 26.3378 42.775 26.5003 42.9375C26.6253 43.0625 26.7065 43.0625 31.619 43.0625H36.6128L36.8065 42.9C37.0628 42.6812 37.1253 42.4187 37.1253 41.4687C37.1253 40.5687 37.0565 40.3375 36.7315 40.1C36.5753 39.9812 36.4378 39.9625 35.544 39.9375L34.5315 39.9062L33.894 38.7187C33.5378 38.0625 33.2503 37.5125 33.2503 37.4875C33.2503 37.4625 35.5253 37.4312 38.3003 37.425L43.3565 37.4062L43.5815 37.2312C44.0315 36.8875 44.0003 37.675 44.0003 27.5937C44.0003 17.6125 44.0253 18.3187 43.6253 17.9812C43.519 17.8875 43.3315 17.7875 43.2003 17.75C43.0503 17.7125 41.4253 17.6875 38.6503 17.6875H34.3315L34.1878 17.2937C33.8253 16.3 33.2815 15.475 32.494 14.725C31.5815 13.8562 30.5378 13.3 29.3503 13.0562C28.594 12.9 27.3628 12.9 26.6253 13.0625ZM32.7003 38.6375C33.0565 39.3 33.3565 39.8625 33.3628 39.8875C33.3753 39.9125 33.2128 39.9375 32.994 39.9375C32.6315 39.9375 32.5878 39.925 32.2878 39.6687C31.4815 38.9875 30.6253 38.5312 29.6253 38.2625C29.1128 38.125 28.9003 38.1062 28.0315 38.1C27.2003 38.1 26.9378 38.125 26.4815 38.2375C25.4565 38.4937 24.519 38.975 23.7065 39.6687C23.394 39.9375 23.3753 39.9437 23.0065 39.925L22.6253 39.9062L23.2878 38.6687L23.944 37.4375H28.0003H32.0565L32.7003 38.6375ZM29.344 39.25C29.619 39.3187 30.0815 39.4937 30.3753 39.6437L30.9065 39.9062L29.4503 39.925C28.6565 39.9312 27.344 39.9312 26.544 39.925L25.094 39.9062L25.5315 39.675C26.0128 39.4312 26.694 39.2062 27.2065 39.1187C27.7128 39.0375 28.7878 39.1062 29.344 39.25Z" fill="#BAFF00"/>
<path d="M23.6571 19.1501C23.4759 19.3313 23.4134 19.7063 23.4509 20.3751C23.4946 21.1751 23.9134 21.8501 24.5759 22.2001C24.9571 22.4001 25.7321 22.4001 26.1134 22.2001C26.4946 22.0001 26.8259 21.6376 27.0384 21.2188C27.1759 20.9251 27.2196 20.7438 27.2384 20.3188C27.2634 19.8501 27.2509 19.7688 27.1446 19.6751C27.0634 19.6001 26.5509 19.4688 25.5696 19.2813C24.7759 19.1251 24.0509 19.0001 23.9634 19.0001C23.8759 19.0001 23.7384 19.0688 23.6571 19.1501ZM26.2321 20.4563C26.2821 20.5126 25.9134 21.1251 25.7759 21.2188C25.5071 21.3938 25.2259 21.4063 24.9821 21.2563C24.7259 21.1001 24.4384 20.5938 24.4384 20.3001V20.0813L25.3259 20.2563C25.8134 20.3563 26.2196 20.4438 26.2321 20.4563Z" fill="#BAFF00"/>
<path d="M30.3132 19.2875C28.6194 19.6188 28.6632 19.5938 28.7007 20.3438C28.7319 20.9375 28.9444 21.4438 29.3194 21.8188C30.1507 22.65 31.4444 22.5188 32.0944 21.5438C32.3944 21.0875 32.5069 20.7 32.5069 20.0813C32.5069 19.3063 32.3257 18.9938 31.8944 19.0063C31.8007 19.0063 31.0882 19.1313 30.3132 19.2875ZM31.5007 20.3375C31.4444 20.7063 31.1819 21.1375 30.9194 21.275C30.5194 21.4938 30.0507 21.2625 29.8069 20.725C29.7444 20.5875 29.7007 20.4625 29.7132 20.4563C29.7257 20.4438 31.2819 20.1063 31.5069 20.0688C31.5257 20.0625 31.5257 20.1875 31.5007 20.3375Z" fill="#BAFF00"/>
<path d="M14.6875 20.1062C14.375 20.225 14.375 20.2312 14.375 21.8812V23.4312L14.5375 23.5562C14.725 23.7062 14.8625 23.7187 15.0937 23.6125C15.3437 23.5 15.3875 23.2312 15.3625 21.7375C15.3437 20.475 15.3375 20.3687 15.2187 20.2562C15.0812 20.1187 14.8312 20.05 14.6875 20.1062Z" fill="#BAFF00"/>
<path d="M17.1312 20.1563C16.8125 20.2563 16.5375 20.5 16.3687 20.825C16.2687 21.0188 16.25 21.1938 16.25 21.8938C16.25 22.65 16.2625 22.7563 16.3937 23.0063C16.7937 23.7625 17.875 23.9063 18.4812 23.2813C18.8125 22.9375 18.9 22.5688 18.8687 21.6813C18.8437 21.1063 18.8187 20.9938 18.6687 20.7375C18.3625 20.2125 17.7125 19.9688 17.1312 20.1563ZM17.8 21.2375C17.8437 21.3 17.875 21.5375 17.875 21.8875C17.875 22.3563 17.8562 22.4563 17.75 22.5625C17.6 22.7125 17.4812 22.7188 17.35 22.5875C17.275 22.5125 17.25 22.35 17.25 21.875C17.25 21.3188 17.2625 21.25 17.3812 21.1625C17.525 21.0625 17.675 21.0875 17.8 21.2375Z" fill="#BAFF00"/>
<path d="M20.0187 20.1251C19.7687 20.2251 19.75 20.3688 19.75 21.9313V23.4313L19.9125 23.5563C20.1187 23.7188 20.3812 23.7251 20.5687 23.5688C20.7187 23.4501 20.7187 23.4376 20.7375 21.9501C20.7562 20.4626 20.7562 20.4501 20.6125 20.2938C20.45 20.1063 20.2187 20.0438 20.0187 20.1251Z" fill="#BAFF00"/>
<path d="M35.5815 20.125C35.2627 20.2562 35.244 20.3687 35.2627 21.9687C35.2815 23.4375 35.2815 23.45 35.4315 23.5687C35.619 23.725 35.8815 23.7187 36.0877 23.5562L36.2502 23.4312V21.9062C36.2502 20.55 36.2377 20.375 36.144 20.2625C36.0127 20.1062 35.769 20.0437 35.5815 20.125Z" fill="#BAFF00"/>
<path d="M38.1496 20.1251C37.8184 20.2001 37.5059 20.4313 37.3309 20.7376C37.1809 20.9938 37.1559 21.1063 37.1309 21.6813C37.0996 22.5876 37.1871 22.9438 37.5309 23.2876C37.8371 23.5938 38.1934 23.7188 38.6121 23.6688C38.9996 23.6251 39.4309 23.3376 39.6059 23.0063C39.7371 22.7563 39.7496 22.6501 39.7496 21.9001C39.7496 21.4438 39.7246 21.0001 39.6871 20.9126C39.5746 20.6001 39.1871 20.2563 38.8559 20.1563C38.5121 20.0563 38.4434 20.0501 38.1496 20.1251ZM38.7371 21.8626C38.7496 22.3688 38.7371 22.5063 38.6559 22.5876C38.5121 22.7251 38.3371 22.7126 38.2246 22.5501C38.0996 22.3751 38.0871 21.3876 38.2059 21.2376C38.3184 21.0938 38.4496 21.0688 38.5934 21.1563C38.6996 21.2251 38.7184 21.3126 38.7371 21.8626Z" fill="#BAFF00"/>
<path d="M40.9375 20.1438C40.6562 20.2875 40.625 20.4375 40.625 21.8563C40.625 22.625 40.65 23.25 40.6875 23.35C40.8188 23.6938 41.1687 23.7875 41.4625 23.5563L41.625 23.4313V21.9063C41.625 20.55 41.6125 20.375 41.5188 20.2625C41.375 20.0938 41.1313 20.0438 40.9375 20.1438Z" fill="#BAFF00"/>
<path d="M27.782 22.1251C27.7133 22.1501 27.4508 22.3876 27.2008 22.6438C26.7883 23.0563 26.7383 23.1376 26.7383 23.3501C26.7383 23.6438 26.9195 23.8126 27.2258 23.8126C27.3945 23.8126 27.507 23.7563 27.707 23.5688L27.9695 23.3251L28.2633 23.6001C28.6695 23.9751 29.0633 23.9813 29.2195 23.6126C29.3383 23.3126 29.2695 23.1688 28.732 22.6376C28.2195 22.1313 28.0133 22.0188 27.782 22.1251Z" fill="#BAFF00"/>
<path d="M15.225 24.7187C14.9313 24.8187 14.6562 25.075 14.4937 25.3875C14.3938 25.5812 14.375 25.7562 14.375 26.4687C14.375 27.0937 14.4 27.375 14.4688 27.55C14.7938 28.325 15.7875 28.5875 16.5125 28.0812C16.65 27.9875 16.8125 27.7937 16.9062 27.6062C17.05 27.3187 17.0625 27.2125 17.0625 26.5437C17.0625 25.6375 16.9875 25.3625 16.6562 25.0312C16.275 24.65 15.7437 24.5312 15.225 24.7187ZM15.9375 25.75C16.0562 25.8687 16.0625 25.9437 16.05 26.5125C16.0312 27.1125 16.025 27.15 15.8625 27.2687C15.7063 27.3875 15.6875 27.3875 15.5375 27.2875C15.3813 27.1875 15.375 27.1625 15.375 26.5187C15.375 25.9875 15.3938 25.8312 15.4813 25.7375C15.6125 25.5875 15.7812 25.5937 15.9375 25.75Z" fill="#BAFF00"/>
<path d="M18.9195 24.7126C18.4883 24.8751 18.2258 25.1563 18.0883 25.6188C17.9508 26.0751 17.9883 27.2438 18.1508 27.5626C18.582 28.4001 19.582 28.6063 20.2758 27.9876C20.6758 27.6438 20.7695 27.2876 20.7445 26.3188C20.7195 25.6626 20.7008 25.5688 20.5445 25.3001C20.2258 24.7563 19.5008 24.4938 18.9195 24.7126ZM19.6258 25.7501C19.732 25.8563 19.7508 25.9563 19.7508 26.4688C19.7508 27.0188 19.7383 27.0813 19.5945 27.2188C19.5133 27.3063 19.4133 27.3751 19.3758 27.3751C19.3383 27.3751 19.2383 27.3063 19.157 27.2188C19.0133 27.0813 19.0008 27.0188 19.0008 26.5126C19.0008 26.0438 19.0195 25.9313 19.132 25.7876C19.282 25.5938 19.457 25.5813 19.6258 25.7501Z" fill="#BAFF00"/>
<path d="M36.0002 24.7937C35.7502 24.925 35.6065 25.0562 35.469 25.2812C35.294 25.5625 35.2815 25.6312 35.2565 26.3187C35.2315 27.2875 35.3252 27.6437 35.7252 27.9875C36.419 28.6062 37.4002 28.4062 37.8502 27.5625C37.9502 27.3812 37.969 27.2062 37.969 26.5312C37.969 25.6187 37.9065 25.375 37.6127 25.0687C37.3377 24.7875 37.1002 24.6812 36.694 24.6437C36.394 24.6187 36.294 24.6375 36.0002 24.7937ZM36.869 25.7875C36.9815 25.9312 37.0002 26.0437 37.0002 26.5125C37.0002 27.0187 36.9877 27.0812 36.844 27.2187C36.7627 27.3062 36.6627 27.375 36.6252 27.375C36.5877 27.375 36.4877 27.3062 36.4065 27.2187C36.2627 27.0812 36.2502 27.0187 36.2502 26.4687C36.2502 25.9562 36.269 25.8562 36.3752 25.75C36.544 25.5812 36.719 25.5937 36.869 25.7875Z" fill="#BAFF00"/>
<path d="M39.8132 24.7062C39.4944 24.8062 39.1007 25.2312 39.0069 25.5687C38.9569 25.7562 38.9319 26.1312 38.9507 26.6375C38.9694 27.375 38.9819 27.4312 39.1569 27.7187C39.7132 28.6187 41.1257 28.5187 41.5319 27.55C41.6007 27.375 41.6257 27.0937 41.6257 26.4687C41.6257 25.75 41.6069 25.5812 41.5069 25.3812C41.1882 24.7687 40.5007 24.4875 39.8132 24.7062ZM40.5132 25.7312C40.6069 25.8187 40.6257 25.9312 40.6257 26.5062C40.6257 27.1625 40.6194 27.1875 40.4632 27.2875C40.3132 27.3875 40.2944 27.3875 40.1382 27.2687C39.9757 27.15 39.9694 27.1125 39.9507 26.5125C39.9382 25.9437 39.9444 25.8687 40.0632 25.75C40.2132 25.6 40.3569 25.5875 40.5132 25.7312Z" fill="#BAFF00"/>
<path d="M14.5 29.5625C14.3812 29.6813 14.375 29.7688 14.375 31.2188C14.375 32.6688 14.3812 32.7563 14.5 32.875C14.7625 33.1375 15.25 32.9813 15.3437 32.6063C15.3625 32.5313 15.375 31.8438 15.3625 31.0813C15.3437 29.825 15.3312 29.6875 15.225 29.5688C15.0625 29.3938 14.675 29.3875 14.5 29.5625Z" fill="#BAFF00"/>
<path d="M16.9062 29.5375C16.6312 29.6875 16.4375 29.8812 16.3062 30.1375C16.2063 30.3312 16.1875 30.5062 16.1875 31.2C16.1875 31.9437 16.2063 32.0687 16.3312 32.3125C16.7312 33.1062 17.85 33.2375 18.4625 32.5625C18.7438 32.25 18.8125 31.9875 18.8125 31.2187C18.8125 30.3125 18.6688 29.9437 18.2 29.6187C17.9125 29.425 17.1938 29.3812 16.9062 29.5375ZM17.7 30.5437C17.85 30.6812 17.8625 31.65 17.7125 31.8625C17.6063 32.0125 17.3813 32.0437 17.2625 31.925C17.1625 31.825 17.1625 30.6125 17.2625 30.5125C17.3687 30.4062 17.5625 30.4187 17.7 30.5437Z" fill="#BAFF00"/>
<path d="M19.75 29.5625C19.6312 29.6812 19.625 29.7687 19.625 31.2062C19.625 32.7187 19.625 32.7312 19.7687 32.8625C19.95 33.0312 20.25 33.0375 20.4437 32.8812C20.5937 32.7625 20.5937 32.75 20.6125 31.2687C20.6312 29.825 20.625 29.7687 20.5 29.6062C20.3312 29.3937 19.9437 29.3687 19.75 29.5625Z" fill="#BAFF00"/>
<path d="M22.1562 29.5375C21.5688 29.8563 21.4438 30.1563 21.4375 31.225C21.4375 31.9625 21.45 32.0688 21.5812 32.3188C21.975 33.0563 22.9688 33.225 23.6063 32.6688C23.975 32.3438 24.0625 32.0813 24.0625 31.2125C24.0625 30.525 24.05 30.4313 23.9 30.1313C23.6625 29.6625 23.3625 29.475 22.7875 29.45C22.4688 29.4375 22.2937 29.4625 22.1562 29.5375ZM22.9625 30.5375C23.1063 30.6813 23.1063 31.725 22.9563 31.8875C22.8313 32.025 22.6688 32.0313 22.5375 31.9C22.4125 31.775 22.3938 30.6313 22.5125 30.5125C22.6187 30.4063 22.85 30.4188 22.9625 30.5375Z" fill="#BAFF00"/>
<path d="M25.0125 29.5813C24.8813 29.725 24.875 29.775 24.875 31.2C24.875 32.5938 24.8813 32.6813 25.0063 32.8375C25.1813 33.0563 25.5063 33.0625 25.7188 32.8438L25.875 32.6938V31.2313C25.875 29.8438 25.8688 29.7563 25.7438 29.6C25.575 29.3813 25.2063 29.375 25.0125 29.5813Z" fill="#BAFF00"/>
<path d="M27.3691 29.5812C27.2191 29.6625 27.0128 29.85 26.9066 29.9937C26.7253 30.2562 26.7191 30.2812 26.7003 31.1C26.6753 31.9062 26.6816 31.9562 26.8378 32.275C26.9441 32.4938 27.0941 32.6687 27.2628 32.7875C27.4941 32.95 27.5753 32.9688 28.0003 32.9688C28.4253 32.9688 28.5066 32.95 28.7378 32.7875C28.9066 32.6687 29.0566 32.4938 29.1628 32.275C29.3191 31.9562 29.3253 31.9062 29.3003 31.1C29.2816 30.2812 29.2753 30.2562 29.0941 29.9937C28.8378 29.6312 28.4566 29.4375 28.0003 29.4375C27.7503 29.4375 27.5628 29.4813 27.3691 29.5812ZM28.2503 30.5562C28.2816 30.625 28.3128 30.9312 28.3128 31.2437C28.3128 31.8375 28.2441 32 28.0003 32C27.7566 32 27.6878 31.8375 27.6878 31.2437C27.6878 30.5812 27.7441 30.4375 28.0003 30.4375C28.1191 30.4375 28.2066 30.4813 28.2503 30.5562Z" fill="#BAFF00"/>
<path d="M30.2563 29.6C30.1313 29.7563 30.125 29.8438 30.125 31.2313V32.6938L30.2812 32.8438C30.4938 33.0625 30.8188 33.0563 30.9938 32.8375C31.1188 32.6813 31.125 32.5938 31.125 31.1875C31.125 29.725 31.125 29.7063 30.9812 29.575C30.7688 29.375 30.425 29.3875 30.2563 29.6Z" fill="#BAFF00"/>
<path d="M32.6193 29.5813C32.4381 29.6813 32.2818 29.8313 32.1568 30.0313C31.9818 30.3188 31.9693 30.375 31.9506 31.0875C31.9256 31.9688 31.9818 32.225 32.2881 32.5625C32.8943 33.2375 34.0006 33.1063 34.4193 32.3188C34.5506 32.0688 34.5631 31.9625 34.5631 31.2375C34.5631 30.3813 34.5006 30.1125 34.2318 29.825C33.8568 29.4188 33.1318 29.3125 32.6193 29.5813ZM33.4881 30.5125C33.6068 30.6313 33.5881 31.775 33.4631 31.9C33.3381 32.0313 33.1943 32.025 33.0506 31.8938C32.8943 31.7563 32.8818 30.6875 33.0381 30.5375C33.1506 30.4188 33.3818 30.4063 33.4881 30.5125Z" fill="#BAFF00"/>
<path d="M35.5003 29.6063C35.3753 29.7688 35.369 29.825 35.3878 31.2688C35.4065 32.75 35.4065 32.7625 35.5565 32.8813C35.7565 33.0438 36.069 33.0375 36.2378 32.8563C36.369 32.7125 36.3753 32.6625 36.3753 31.2C36.3753 29.7688 36.369 29.6813 36.2503 29.5625C36.0565 29.3688 35.669 29.3938 35.5003 29.6063Z" fill="#BAFF00"/>
<path d="M37.9687 29.525C37.7437 29.625 37.4625 29.9 37.325 30.1563C37.1937 30.4 37.1437 31.6625 37.25 32.05C37.5437 33.1625 39.1562 33.3313 39.675 32.3125C39.7937 32.0688 39.8125 31.9438 39.8125 31.2C39.8125 30.325 39.7687 30.1438 39.475 29.825C39.15 29.4625 38.4312 29.325 37.9687 29.525ZM38.7375 30.5125C38.7875 30.5625 38.8125 30.8125 38.8125 31.2188C38.8125 31.8875 38.7687 32 38.525 32C38.2812 32 38.1875 31.7813 38.1875 31.1938C38.1875 30.7875 38.2125 30.6375 38.2937 30.55C38.4062 30.4188 38.625 30.4 38.7375 30.5125Z" fill="#BAFF00"/>
<path d="M40.775 29.5688C40.6625 29.6938 40.6562 29.8125 40.6562 31.2313V32.7625L40.8063 32.8813C41 33.0375 41.3125 33.0313 41.4875 32.875C41.6188 32.75 41.625 32.7063 41.625 31.2188C41.625 29.7688 41.6188 29.6813 41.5 29.5625C41.325 29.3875 40.9375 29.3938 40.775 29.5688Z" fill="#BAFF00"/>
</g>
<defs>
<clipPath id="clip0_0_28">
<rect width="32" height="32" fill="white" transform="translate(12 12)"/>
</clipPath>
</defs>
</svg>
