<svg width="56" height="56" viewBox="0 0 56 56" fill="none" xmlns="http://www.w3.org/2000/svg">
<rect width="56" height="56" rx="28" fill="#BAFF00" fill-opacity="0.1"/>
<g clip-path="url(#clip0_0_62)">
<path d="M15.2803 12.0938C14.8053 12.225 14.1241 12.5875 13.7741 12.9C13.3428 13.2813 12.9053 13.9313 12.7053 14.5C12.5491 14.9313 12.5366 15.0688 12.5116 16.1438C12.4866 17.3125 12.4866 17.3125 12.6553 17.6625C12.7678 17.8875 12.9053 18.0625 13.0678 18.1688C13.2053 18.2563 13.3241 18.3875 13.3428 18.4625C13.5053 19.275 13.5991 19.5375 13.7991 19.7688C13.9116 19.8938 13.9366 19.8688 13.4866 20.0875C12.9428 20.35 12.5366 20.7438 12.2678 21.3L12.0303 21.775L12.0116 22.9313C11.9928 24.0625 11.9928 24.1 12.1366 24.3063C12.2178 24.425 12.3616 24.5813 12.4553 24.65C12.6303 24.7813 12.6928 24.7813 16.2053 24.7938L19.7803 24.8125L20.0303 24.6688C20.1928 24.5813 20.3303 24.4313 20.4241 24.25C20.5616 23.9813 20.5678 23.9125 20.5491 22.9063L20.5303 21.8438L20.3053 21.375C20.0178 20.7875 19.5991 20.3563 19.0553 20.0938L18.6366 19.8938L18.7803 19.7125C18.9428 19.5 19.1053 19.0313 19.1616 18.6063C19.1866 18.4438 19.2241 18.3125 19.2553 18.3125C19.3616 18.3125 19.7616 17.9063 19.8803 17.6813C19.9866 17.4688 19.9991 17.3063 19.9991 16.2938C19.9991 15.0188 19.9428 14.675 19.6116 14C19.4741 13.7188 19.2491 13.4375 18.9053 13.0938C18.3616 12.55 17.8803 12.2625 17.2178 12.0938C16.7616 11.975 15.7116 11.9813 15.2803 12.0938ZM17.3241 13.3375C17.8741 13.6 18.3366 14.0563 18.5866 14.5813C18.7053 14.8313 18.8241 15.1313 18.8491 15.25L18.8866 15.4625L18.7428 15.3563C18.4241 15.1313 18.2178 15.05 17.8178 14.9938C17.5741 14.9563 17.2241 14.85 16.9553 14.7188C16.3741 14.4375 16.1366 14.4375 15.5803 14.7125C15.3491 14.8313 15.0178 14.95 14.8428 14.9688C14.3866 15.0313 14.1178 15.1188 13.8803 15.3L13.6678 15.4563L13.7116 15.1938C13.8116 14.5625 14.4241 13.7313 15.0178 13.425C15.4991 13.1813 15.7553 13.125 16.3741 13.1438C16.8678 13.1625 17.0241 13.1938 17.3241 13.3375ZM16.5741 15.8188C16.7178 15.8938 17.0928 16.0063 17.3991 16.0688C17.7116 16.1313 17.9928 16.225 18.0303 16.275C18.0616 16.325 18.1428 16.45 18.1991 16.5563C18.2616 16.675 18.3678 16.7625 18.4803 16.7813C18.7303 16.8375 18.8428 16.9063 18.8616 17.025C18.8928 17.175 18.7616 17.3125 18.5803 17.3125C18.3241 17.3125 18.1491 17.5563 18.0991 17.975C17.9991 18.8438 17.9428 18.9875 17.5803 19.2813C17.1928 19.6 16.6803 19.8625 16.3553 19.9188C16.0366 19.9688 15.2991 19.6125 14.8866 19.2063C14.6053 18.9375 14.5678 18.8688 14.5053 18.4938C14.4678 18.2688 14.4366 17.9938 14.4366 17.8875C14.4366 17.6438 14.1678 17.3125 13.9678 17.3125C13.8241 17.3125 13.6241 17.1688 13.6241 17.0625C13.6241 16.9563 13.8241 16.8125 13.9741 16.8125C14.1366 16.8125 14.2428 16.7188 14.4553 16.375C14.5866 16.175 14.6303 16.1563 15.0803 16.0813C15.3428 16.0375 15.7053 15.9313 15.8866 15.85C16.2991 15.6625 16.2678 15.6625 16.5741 15.8188ZM15.0928 20.7438C15.1303 20.8063 15.7991 21.0313 16.0866 21.0813C16.3241 21.1188 16.9866 20.9813 17.2866 20.825L17.5303 20.7L17.9116 20.8438C18.6866 21.1375 19.0241 21.3813 19.2678 21.8438C19.3803 22.05 19.4053 22.225 19.4241 22.8875L19.4491 23.6875H16.2866H13.1241V22.9188C13.1241 22.2188 13.1366 22.1188 13.2866 21.825C13.4991 21.4 13.7803 21.175 14.4303 20.9125C15.0303 20.6688 15.0428 20.6625 15.0928 20.7438Z" fill="#BAFF00"/>
<path d="M38.2191 12.0938C37.0066 12.4313 36.0379 13.35 35.6191 14.5625C35.5004 14.9125 35.4754 15.1563 35.4379 16.2813C35.3941 17.7 35.3316 18.0063 34.9691 18.5813C34.8754 18.725 34.7066 19 34.5879 19.1875C34.3316 19.5938 34.3004 19.9875 34.5004 20.375C34.6316 20.6313 34.9316 20.8938 35.1754 20.9688C35.2566 20.9938 35.3066 21.0438 35.2879 21.0813C34.9691 21.8 34.9316 21.9625 34.8941 22.675C34.8316 23.9188 34.9441 24.3438 35.4316 24.6688L35.6441 24.8125H39.1816H42.7191L42.9629 24.6688C43.1191 24.5813 43.2629 24.425 43.3566 24.2563C43.4879 24.0063 43.5004 23.9 43.5004 23.1C43.5004 22.1688 43.4254 21.7125 43.1879 21.25L43.0629 21.0063L43.2691 20.9438C43.4816 20.8688 43.8066 20.575 43.9316 20.3313C43.9691 20.2563 44.0004 20.0313 44.0004 19.8313C44.0004 19.4563 43.9754 19.3938 43.5129 18.7125C43.0754 18.0625 42.9379 17.425 42.9379 16.0625C42.9379 14.6 42.6941 13.9375 41.8441 13.0938C41.3004 12.55 40.8129 12.2625 40.1566 12.0938C39.7004 11.975 38.6504 11.9813 38.2191 12.0938ZM40.2566 13.3313C40.6754 13.5313 41.1191 13.9125 41.3754 14.275C41.5816 14.5813 41.8129 15.2188 41.8129 15.5C41.8129 15.675 41.8004 15.6875 41.5629 15.6875C41.2129 15.6875 41.0254 15.5813 40.8441 15.275C40.6316 14.9125 40.3504 14.75 39.9254 14.75C39.6316 14.75 39.5316 14.7875 39.1066 15.05C38.4566 15.4625 37.9316 15.6313 37.1629 15.675L36.5441 15.7063L36.5941 15.4C36.7504 14.3563 37.4441 13.55 38.4691 13.2063C38.6254 13.1563 38.9379 13.1313 39.3129 13.1438C39.8066 13.1625 39.9691 13.1938 40.2566 13.3313ZM40.0941 16.2063C40.3316 16.5313 40.7629 16.7563 41.2629 16.8063C41.7129 16.8563 41.8129 16.9 41.8129 17.0563C41.8129 17.2 41.6879 17.3125 41.5254 17.3125C41.2441 17.3125 41.1066 17.5125 41.0566 17.9875C40.9941 18.5625 40.8254 18.9313 40.4691 19.2813C40.1379 19.6 39.4816 19.9375 39.1941 19.9375C38.9254 19.9375 38.3004 19.6125 37.9566 19.2938C37.5816 18.95 37.3754 18.5125 37.3754 18.05C37.3754 17.625 37.2316 17.4188 36.8441 17.3C36.5691 17.2125 36.5004 17.0688 36.6566 16.9125C36.7316 16.8375 36.8754 16.8125 37.2066 16.8125C37.9504 16.8125 38.8629 16.5438 39.5379 16.1375C39.7066 16.0313 39.8566 15.9438 39.8754 15.9438C39.8941 15.9438 39.9941 16.0625 40.0941 16.2063ZM36.7066 19.5875C36.8066 19.7125 36.8629 19.8375 36.8441 19.875C36.7566 20.0125 36.3441 20.075 35.9941 20.0063C35.4879 19.9 35.4691 19.875 35.6816 19.5875C35.7816 19.4563 35.9504 19.1688 36.0629 18.9563L36.2691 18.5625L36.4004 18.9625C36.4754 19.1813 36.6129 19.4625 36.7066 19.5875ZM42.6254 19.4375C42.7691 19.65 42.8629 19.8438 42.8379 19.875C42.7691 19.9313 42.2441 20.0625 42.0754 20.0625C42.0066 20.0625 41.8504 20.0188 41.7254 19.9688L41.5004 19.875L41.7129 19.5438C41.8316 19.3688 41.9754 19.0688 42.0379 18.8875L42.1441 18.5563L42.2566 18.8063C42.3129 18.9438 42.4816 19.2313 42.6254 19.4375ZM38.4316 20.9125C39.0004 21.1438 39.4941 21.1375 40.0379 20.8813L40.4441 20.6938L40.8379 20.8375C41.6254 21.1375 41.9629 21.3813 42.2066 21.8438C42.3191 22.05 42.3441 22.225 42.3629 22.8875L42.3879 23.6875H39.1879H35.9816L36.0129 22.95C36.0629 21.7313 36.3254 21.3375 37.3691 20.9125C37.6629 20.7938 37.9379 20.7063 37.9691 20.7188C38.0066 20.7313 38.2129 20.8188 38.4316 20.9125Z" fill="#BAFF00"/>
<path d="M23.2313 21.6313C22.5875 21.7813 22.0563 22.225 21.7687 22.8438L21.5938 23.2188V28V32.7813L21.7687 33.1563C21.9938 33.6438 22.3625 34.0125 22.8375 34.2313L23.2188 34.4062H28H32.7812L33.1625 34.2313C33.6375 34.0125 34.0063 33.6438 34.2312 33.1563L34.4062 32.7813V28V23.2188L34.2312 22.8438C34.0063 22.3563 33.6375 21.9875 33.1625 21.7688L32.7812 21.5938L28.125 21.5813C25.5375 21.575 23.3625 21.6 23.2313 21.6313ZM24.75 24.5438C24.75 25.65 24.775 26.5 24.8188 26.6438C24.9688 27.1813 25.5438 27.5563 26.1125 27.475C26.3438 27.4438 26.5813 27.3188 27.2063 26.9063L28 26.375L28.8063 26.9125C29.45 27.3375 29.675 27.4563 29.9062 27.4813C30.4625 27.55 31.0375 27.175 31.1813 26.6438C31.225 26.5 31.25 25.65 31.25 24.5438V22.6875H31.8313C32.6562 22.6938 32.9938 22.8625 33.2188 23.3938C33.3 23.5875 33.3125 24.2 33.3125 28C33.3125 31.8 33.3 32.4125 33.2188 32.6063C33.0875 32.9188 32.9563 33.0563 32.6562 33.1938C32.4187 33.3 32.1438 33.3125 28.0125 33.3125C24.2 33.3125 23.5938 33.3 23.3938 33.2188C23.0813 33.0875 22.9438 32.9563 22.8062 32.6563C22.7 32.4188 22.6875 32.1438 22.6875 28.0125C22.6875 24.2 22.7 23.5938 22.7812 23.3938C23.0063 22.8625 23.3438 22.6938 24.175 22.6875H24.75V24.5438ZM30.125 24.4875C30.125 25.4813 30.1062 26.3063 30.0875 26.3313C30.0688 26.35 29.6313 26.0875 29.1125 25.7438C28.475 25.325 28.125 25.125 28 25.125C27.875 25.125 27.525 25.325 26.8875 25.7438C26.3688 26.0875 25.9313 26.35 25.9125 26.3313C25.8938 26.3063 25.875 25.4813 25.875 24.4875V22.6875H28H30.125V24.4875Z" fill="#BAFF00"/>
<path d="M24.2365 29.1875C24.1115 29.2563 23.9427 29.4125 23.8615 29.5438C23.7365 29.75 23.7177 29.875 23.699 30.5C23.6677 31.3563 23.7427 31.6938 24.024 31.975C24.3302 32.2813 24.599 32.325 26.0302 32.3C27.274 32.2813 27.2927 32.2813 27.5427 32.1125C27.9365 31.85 27.999 31.65 27.999 30.6375C27.999 29.8375 27.9865 29.75 27.8552 29.5563C27.7802 29.4438 27.6177 29.2813 27.5052 29.2063C27.299 29.0688 27.249 29.0625 25.8802 29.0625C24.6115 29.0688 24.4427 29.0813 24.2365 29.1875ZM26.874 30.6875V31.1875H25.8427H24.8115V30.6875V30.1875H25.8427H26.874V30.6875Z" fill="#BAFF00"/>
<path d="M15.8875 31.2776C14.6125 31.5901 13.4937 32.7026 13.1625 33.9776C13.0937 34.2464 13.0625 34.6463 13.0625 35.2589C13.0625 36.7214 12.9312 37.2463 12.3375 38.1338C12.0187 38.6151 12 38.6651 12 39.0276C12 39.5526 12.175 39.8588 12.6 40.0713L12.9187 40.2338L12.8062 40.4588C12.575 40.8963 12.5 41.3713 12.5 42.2838C12.5 43.2838 12.5812 43.5651 12.9437 43.8213L13.1562 43.9713L16.7375 43.9901C20.3 44.0026 20.325 44.0026 20.5625 43.8713C20.9562 43.6526 21.0812 43.3401 21.1125 42.5338C21.1437 41.7088 21.05 41.0276 20.8375 40.5713C20.7562 40.3838 20.6937 40.2338 20.7 40.2276C21.175 40.0526 21.5562 39.6463 21.6062 39.2651C21.6562 38.8713 21.5812 38.6088 21.2875 38.1776C20.675 37.2838 20.5625 36.8713 20.5625 35.5276C20.5625 34.3463 20.5 33.9901 20.15 33.2713C19.5187 31.9588 18.2562 31.1839 16.7875 31.1964C16.475 31.1964 16.0687 31.2338 15.8875 31.2776ZM17.5812 32.4401C18.5375 32.7338 19.2812 33.6214 19.4125 34.6214L19.4562 34.9464L19.1812 34.9088C18.7375 34.8463 18.6 34.7651 18.425 34.4713C18.2 34.1026 17.9312 33.9401 17.5312 33.9401C17.2625 33.9401 17.1437 33.9838 16.75 34.2276C16.1312 34.6151 15.5687 34.8214 15.0312 34.8526C14.7937 34.8714 14.5 34.8963 14.3812 34.9088L14.1687 34.9339L14.2062 34.5901C14.225 34.4026 14.325 34.0651 14.425 33.8463C14.9937 32.6339 16.3062 32.0463 17.5812 32.4401ZM18.225 35.8463C18.3562 35.9088 18.6562 35.9901 18.8937 36.0276C19.3687 36.1089 19.525 36.2276 19.3812 36.4026C19.3312 36.4588 19.2312 36.5026 19.15 36.5026C19.075 36.5026 18.9312 36.5651 18.8375 36.6463C18.7 36.7713 18.6687 36.8589 18.625 37.2589C18.6 37.5151 18.5312 37.8276 18.475 37.9526C18.2625 38.4026 17.5875 38.9338 16.9875 39.1276C16.7687 39.1963 16.7187 39.1838 16.3 38.9776C15.425 38.5588 15.0125 38.0276 14.9562 37.2589C14.9187 36.7651 14.8187 36.5901 14.55 36.5339C14.2875 36.4776 14.1875 36.3963 14.1875 36.2463C14.1875 36.0838 14.425 36.0026 14.8937 36.0026C15.6187 36.0026 16.5 35.7338 17.175 35.3151L17.4625 35.1401L17.7312 35.4401C17.875 35.6026 18.1 35.7838 18.225 35.8463ZM14.0062 38.1901C14.0687 38.3588 14.2 38.6276 14.3062 38.7838L14.5 39.0713L14.2812 39.1651C14.1625 39.2088 13.9937 39.2526 13.9062 39.2526C13.6937 39.2526 13.1937 39.1276 13.1562 39.0588C13.1375 39.0338 13.2312 38.8588 13.3625 38.6713C13.4937 38.4838 13.65 38.2151 13.7125 38.0713C13.7812 37.9276 13.8437 37.8276 13.8625 37.8463C13.8812 37.8651 13.9437 38.0151 14.0062 38.1901ZM19.9 38.1088C19.9812 38.2776 20.15 38.5463 20.275 38.7151C20.3937 38.8838 20.4812 39.0463 20.4687 39.0713C20.4312 39.1276 19.9187 39.2526 19.7125 39.2526C19.5187 39.2526 19.125 39.1213 19.125 39.0588C19.125 39.0401 19.1812 38.9463 19.25 38.8588C19.4125 38.6526 19.6875 38.0651 19.6875 37.9213C19.6875 37.7526 19.7375 37.7963 19.9 38.1088ZM16.8125 40.2776C17.1375 40.2776 17.3062 40.2401 17.6437 40.0776L18.0625 39.8838L18.6312 40.1213C19.3437 40.4151 19.5687 40.5963 19.7812 41.0276C19.925 41.3213 19.9562 41.4776 19.9812 42.1213L20.0187 42.8776H16.8125H13.6125L13.6375 42.0776C13.6562 41.4088 13.6812 41.2401 13.8 41.0213C14 40.6463 14.35 40.3776 14.975 40.1213L15.5312 39.9026L15.9687 40.0901C16.3062 40.2401 16.5 40.2776 16.8125 40.2776Z" fill="#BAFF00"/>
<path d="M38.825 31.275C37.525 31.5937 36.425 32.6937 36.0875 34.0062C36.0125 34.2875 36 34.6562 36.0125 35.5875L36.0312 36.8L36.225 37.0437C36.3312 37.175 36.5 37.3375 36.6062 37.4062C36.7562 37.5062 36.8062 37.5875 36.8375 37.8125C36.8937 38.225 37.0562 38.6937 37.225 38.9125L37.3687 39.1062L37.0187 39.25C36.5937 39.425 36.0187 39.95 35.7875 40.375C35.5062 40.8937 35.4375 41.25 35.4375 42.25C35.4375 43.0687 35.45 43.1875 35.5812 43.4375C35.6562 43.5937 35.8125 43.7812 35.9312 43.8562L36.1437 44H39.7187H43.2937L43.5062 43.8562C43.6187 43.7812 43.7812 43.6187 43.8625 43.5C44.0062 43.2875 44.0062 43.25 43.9875 42.125C43.9687 41.0125 43.9625 40.9562 43.7937 40.6C43.4875 39.9375 42.925 39.4062 42.3 39.1812C42.0687 39.1 42.0625 39.1 42.1812 38.975C42.375 38.7562 42.5062 38.45 42.5937 37.9875C42.65 37.6812 42.7125 37.525 42.7937 37.4812C43.0187 37.3562 43.35 36.9562 43.425 36.7062C43.55 36.2812 43.525 34.6125 43.375 34.0375C42.9375 32.3125 41.4812 31.175 39.725 31.1937C39.4125 31.1937 39.0062 31.2312 38.825 31.275ZM40.4812 32.425C40.9312 32.5687 41.2875 32.7875 41.625 33.1375C41.9125 33.4375 42.2312 34.0437 42.2937 34.3937L42.3312 34.6312L42.025 34.4437C41.825 34.3187 41.5687 34.2312 41.2812 34.1875C41.025 34.15 40.6562 34.0312 40.3937 33.9062C39.825 33.6312 39.6125 33.6312 39.075 33.9062C38.8187 34.0375 38.4875 34.1437 38.2437 34.1812C37.7437 34.25 37.5812 34.3187 37.3125 34.5375L37.1062 34.7125L37.15 34.4687C37.2187 34.075 37.5312 33.4687 37.8187 33.1562C38.4937 32.425 39.5437 32.1375 40.4812 32.425ZM40.0875 35.0375C40.2812 35.125 40.65 35.2375 40.9 35.2812C41.4562 35.375 41.475 35.3875 41.6125 35.675C41.7 35.8625 41.775 35.925 42.0125 35.9937C42.3312 36.0875 42.4437 36.25 42.3125 36.4062C42.2687 36.4562 42.1687 36.5 42.0812 36.5C41.9937 36.5 41.85 36.5812 41.7437 36.6812C41.6 36.825 41.5625 36.9187 41.5625 37.1375C41.5625 37.6312 41.4062 38.1187 41.1812 38.35C40.8937 38.6437 40.4687 38.9125 40.05 39.0562L39.7062 39.175L39.3562 39.0312C38.925 38.8562 38.4562 38.5625 38.2375 38.3312C38.075 38.1562 37.975 37.8187 37.9062 37.1875C37.85 36.7562 37.7437 36.5875 37.4875 36.5312C37.2312 36.475 37.125 36.3937 37.125 36.2437C37.125 36.1187 37.3 36 37.4875 36C37.6187 36 37.8187 35.7937 37.925 35.55C37.9625 35.4562 38.0562 35.3625 38.1375 35.35C38.2187 35.3312 38.4625 35.2875 38.6875 35.25C38.9125 35.2125 39.2187 35.1125 39.375 35.0375C39.7375 34.85 39.6812 34.85 40.0875 35.0375ZM39.375 40.2437C39.775 40.325 40.2062 40.2625 40.6937 40.0562C41.0062 39.9187 41.0187 39.9187 41.3312 40.0312C42.5812 40.4625 42.875 40.8625 42.875 42.125V42.875H39.7125H36.55L36.575 42.075C36.5937 41.4125 36.6187 41.2375 36.7312 41.0312C36.9437 40.625 37.25 40.3875 37.875 40.1312L38.4562 39.8875L38.7437 40.0312C38.9 40.1125 39.1875 40.2062 39.375 40.2437Z" fill="#BAFF00"/>
</g>
<defs>
<clipPath id="clip0_0_62">
<rect width="32" height="32" fill="white" transform="translate(12 12)"/>
</clipPath>
</defs>
</svg>
