<svg width="56" height="56" viewBox="0 0 56 56" fill="none" xmlns="http://www.w3.org/2000/svg">
<rect width="56" height="56" rx="28" fill="#BAFF00" fill-opacity="0.1"/>
<g clip-path="url(#clip0_0_77)">
<path d="M18.663 15.5791C18.5262 15.63 18.3252 15.7521 18.2141 15.8488C18.1029 15.9454 17.9747 16.037 17.9362 16.0574C17.8464 16.0981 17.5258 16.6833 17.4916 16.8665C17.4745 16.9479 17.4488 17.0089 17.4317 17.0089C17.3334 17.0089 17.3034 17.5636 17.3034 19.2937V21.1306H15.1444H12.9854V20.5454C12.9854 20.1485 13.0025 19.9602 13.0324 19.9602C13.0581 19.9602 13.1906 19.8839 13.3231 19.7872C13.5839 19.599 13.9174 19.0799 14.0029 18.739C14.1183 18.276 14.0884 17.5738 13.9431 17.2684C13.6823 16.724 13.5882 16.5815 13.3915 16.4645C13.3231 16.4187 13.2462 16.3525 13.2205 16.3169C13.135 16.1897 12.7545 16.0777 12.3869 16.0777C11.9636 16.0727 11.6344 16.1795 11.4249 16.3831C11.3437 16.4594 11.2197 16.5764 11.1513 16.6426C10.9931 16.785 10.7451 17.3295 10.6767 17.6806C10.5228 18.4337 10.852 19.3802 11.4035 19.7872L11.66 19.9755V21.3138V22.6571H14.4817H17.3034V25.354V28.0509H16.0893H14.8708L14.8409 27.9338C14.7725 27.6591 14.5074 27.2418 14.2979 27.0688C13.7977 26.6566 13.6523 26.6007 13.1564 26.6007C12.7545 26.6007 12.4125 26.6719 12.3441 26.7737C12.3313 26.7889 12.2543 26.85 12.1731 26.9009C11.908 27.0739 11.7028 27.308 11.5574 27.5929C11.3351 28.0254 11.1727 28.8498 11.2667 29.0889C11.2881 29.1449 11.3266 29.3026 11.3565 29.44C11.4292 29.8013 11.5617 30.1117 11.7327 30.3C11.814 30.3916 11.9208 30.5188 11.9679 30.5798C12.0192 30.6409 12.1816 30.7579 12.3398 30.8343C12.5963 30.9615 12.669 30.9767 13.135 30.9767C13.5711 30.9767 13.6865 30.9564 13.896 30.8597C14.2039 30.7121 14.657 30.2084 14.7596 29.8929L14.8323 29.6792H16.0679H17.3034V32.1471V34.615H14.4604H11.6173V35.9583V37.3017L11.3736 37.4747C11.1128 37.6579 10.8691 37.9886 10.7109 38.3754C10.5998 38.6501 10.557 39.2913 10.6297 39.6729C10.6938 40.0138 10.9888 40.543 11.2325 40.7567C11.3394 40.8534 11.4634 40.9603 11.5104 41.0061C11.5574 41.0468 11.6729 41.1079 11.7669 41.1384C11.9978 41.2198 12.6263 41.2147 12.8272 41.1333C13.0239 41.0519 13.4429 40.7313 13.5668 40.5634C13.7207 40.3497 13.9217 39.9172 13.973 39.678C14.0499 39.3218 14.0029 38.6552 13.8875 38.3703C13.7079 37.9479 13.4899 37.6528 13.2077 37.4645L12.9469 37.2864L12.9426 36.7114V36.1415H15.123H17.3034V37.7546C17.3034 38.645 17.3248 39.4643 17.3462 39.5762C17.3676 39.6882 17.4659 39.9629 17.5685 40.1868C17.7695 40.6295 18.0345 40.9196 18.4578 41.1689L18.6929 41.3063L28.0986 41.3216C38.385 41.3317 37.7266 41.3521 38.1114 41.0417C38.6586 40.5939 38.9579 40.08 39.0092 39.4846C39.022 39.3218 39.0519 39.1793 39.069 39.1641C39.0904 39.1488 39.1075 38.4619 39.1075 37.6375V36.1415H41.4589H43.8103V36.7216V37.3017L43.6949 37.3322C43.635 37.3526 43.4982 37.4391 43.3956 37.5205C42.7159 38.0802 42.5106 39.22 42.9168 40.1868C43.2161 40.8941 43.9813 41.3317 44.6782 41.1893C45.0416 41.118 45.1656 41.0519 45.5033 40.7364C46.0378 40.2428 46.2387 39.3422 46.0121 38.4466C45.9223 38.1006 45.6102 37.6477 45.3281 37.4594L45.0929 37.3017V35.9583V34.615H42.1002H39.1075V31.9181V29.2212H40.296L41.4803 29.2263L41.553 29.4146C41.5957 29.5164 41.7197 29.7402 41.8309 29.9082C41.9976 30.1524 42.1045 30.2491 42.4209 30.4374L42.8014 30.6714H43.2503C43.6992 30.6714 43.7077 30.6663 44.084 30.4475C44.5671 30.1626 44.8663 29.7606 45.0117 29.211C45.1357 28.7226 45.1143 27.9593 44.9604 27.5319C44.8364 27.196 44.4473 26.677 44.1994 26.5243C43.6393 26.1885 42.8698 26.1834 42.314 26.5243C42.1045 26.6516 41.7753 27.0332 41.6727 27.2673C41.523 27.6133 41.6 27.5929 40.296 27.5929H39.1075V25.125V22.6571H42.1216H45.1357V21.3138V19.9704L45.3238 19.8636C45.5931 19.7058 45.9138 19.2784 46.0378 18.9171C46.119 18.6627 46.1404 18.5202 46.1404 18.0775C46.1404 17.5636 46.1361 17.528 45.9822 17.1616C45.7428 16.5815 45.2981 16.1948 44.7466 16.0879C44.1951 15.9811 43.6949 16.1693 43.2674 16.6426C42.9424 16.9988 42.8142 17.36 42.7928 17.9757C42.78 18.3218 42.7971 18.5406 42.8441 18.739C42.9168 19.0443 43.0579 19.3496 43.122 19.3496C43.1434 19.3496 43.1733 19.3954 43.1904 19.4514C43.2203 19.5735 43.5795 19.889 43.7377 19.9348L43.8531 19.9704V20.5505V21.1306H41.4803H39.1075V19.4005C39.1075 18.281 39.0904 17.6704 39.0647 17.6704C39.0434 17.6704 39.022 17.5941 39.022 17.5025C39.0177 16.9021 38.6158 16.1235 38.1669 15.8539C38.0857 15.803 38.0087 15.747 37.9959 15.7266C37.9831 15.7063 37.8933 15.6503 37.8035 15.5994C37.6411 15.5129 37.1622 15.5078 28.2696 15.4977C19.2915 15.4875 18.8981 15.4926 18.663 15.5791ZM37.3332 17.2074C37.4273 17.2583 37.5427 17.3499 37.5898 17.416C37.6753 17.528 37.6753 17.6094 37.6881 28.3613C37.6966 40.3802 37.7223 39.4134 37.4188 39.5864C37.3375 39.6322 37.2691 39.6882 37.2691 39.7136C37.2691 39.734 33.2033 39.7543 28.2354 39.7543C20.356 39.7543 19.1803 39.7441 19.0734 39.678C18.911 39.5813 18.7742 39.4134 18.7186 39.2302C18.6587 39.047 18.6544 17.9452 18.71 17.6552C18.7571 17.416 18.8981 17.2277 19.0734 17.1667C19.1504 17.1412 23.0922 17.1209 28.1841 17.1158C36.8074 17.1107 37.1708 17.1158 37.3332 17.2074ZM12.7674 17.2786C13.1479 17.5127 13.2718 18.1233 13.0324 18.6067C12.7332 19.2071 12.0063 19.2071 11.6814 18.6016C11.5318 18.3116 11.519 18.0063 11.6472 17.6603C11.8182 17.2074 12.3526 17.0242 12.7674 17.2786ZM44.8193 17.243C45.2468 17.4822 45.4349 18.1844 45.1742 18.5406C45.1228 18.6067 45.0544 18.7136 45.016 18.7797C44.8621 19.0545 44.3789 19.1512 44.1053 18.9629C43.9044 18.8204 43.6436 18.3472 43.6393 18.1233C43.6393 17.8078 43.8616 17.4007 44.131 17.2227C44.2592 17.1361 44.6526 17.1514 44.8193 17.243ZM43.5795 27.4861C44.007 27.7354 44.2037 28.2035 44.0925 28.7073C43.8916 29.6334 42.9424 29.8115 42.4978 29.0075C42.3952 28.8294 42.3781 28.7429 42.3781 28.463C42.3781 28.0356 42.4722 27.8372 42.7843 27.5827C43.0622 27.3588 43.3058 27.3283 43.5795 27.4861ZM13.4771 27.8423C13.8875 28.0712 14.1012 28.575 13.9944 29.0686C13.9302 29.3637 13.8148 29.5316 13.5497 29.7148C13.3915 29.8267 13.3274 29.842 13.0752 29.8217C12.7374 29.8013 12.5536 29.669 12.3526 29.3077C12.2586 29.1398 12.2372 29.0431 12.2372 28.7938C12.2372 28.5139 12.2543 28.458 12.3954 28.229C12.4809 28.0865 12.5963 27.944 12.6519 27.9033C12.8913 27.7252 13.2248 27.7049 13.4771 27.8423ZM12.7075 38.3499C12.9213 38.5026 13.1137 38.8893 13.1137 39.1742C13.1137 39.8612 12.4553 40.3344 11.9337 40.0189C11.7199 39.8917 11.6472 39.7849 11.5532 39.4897C11.4634 39.1946 11.4848 38.9656 11.6387 38.6552C11.8482 38.2329 12.3355 38.0955 12.7075 38.3499ZM44.7851 38.3346C44.9219 38.4161 44.9946 38.5026 45.063 38.6654C45.11 38.7875 45.1699 38.8893 45.187 38.8893C45.2041 38.8893 45.2212 39.0165 45.2212 39.1692C45.2212 39.3218 45.2041 39.449 45.1827 39.449C45.1613 39.449 45.1143 39.5406 45.0801 39.6475C44.9604 40.0037 44.5884 40.197 44.2122 40.1003C43.8061 39.9935 43.4982 39.4236 43.6008 38.9656C43.7462 38.3448 44.2934 38.0548 44.7851 38.3346Z" fill="#BAFF00"/>
<path d="M27.8717 28.234C27.4656 28.3612 27.1663 28.6157 26.9482 29.0176C26.6661 29.5367 26.6362 30.4068 26.8841 30.9869C26.9611 31.1701 27.0637 31.3532 27.115 31.399C27.2774 31.5517 27.3074 31.6891 27.3074 32.259C27.3074 32.5592 27.3288 32.895 27.3544 33.0019C27.4014 33.2156 27.6237 33.5464 27.7178 33.5464C27.752 33.5464 27.7777 33.5667 27.7777 33.5922C27.7777 33.6838 28.0898 33.7601 28.3976 33.7397C28.6626 33.7245 28.7396 33.699 28.8978 33.5667C28.9961 33.4853 29.1372 33.3123 29.2099 33.1902C29.3339 32.9663 29.3381 32.9408 29.351 32.2743C29.3638 31.6026 29.3681 31.5822 29.4835 31.4347C29.9709 30.8088 30.0863 29.9183 29.7742 29.2263C29.5134 28.6513 29.2099 28.3561 28.7524 28.2289C28.419 28.1373 28.1667 28.1373 27.8717 28.234ZM28.6883 29.3179C28.9149 29.496 29.0602 29.786 29.0602 30.071C29.056 30.361 28.8978 30.7019 28.7097 30.819C28.5002 30.9462 28.4745 31.0632 28.466 31.9435C28.4574 32.6355 28.4403 32.7322 28.3121 32.7322C28.1624 32.7322 28.1453 32.6406 28.1368 31.857C28.1325 31.4296 28.1197 31.0428 28.1026 30.9971C28.0855 30.9462 27.9871 30.8495 27.8845 30.7681C27.7563 30.6765 27.6751 30.5645 27.628 30.4322C27.4827 29.9946 27.5853 29.6181 27.9273 29.3382C28.1924 29.1143 28.4104 29.1143 28.6883 29.3179Z" fill="#BAFF00"/>
<path d="M27.8418 19.3497C27.7734 19.3751 27.581 19.4311 27.4143 19.4718C26.9739 19.5889 26.5164 19.7975 26.3412 19.9654C26.2556 20.0468 26.1659 20.113 26.1402 20.113C26.0376 20.113 25.4006 20.8203 25.2296 21.1256C25.1697 21.2426 25.1013 21.3342 25.0842 21.3342C25.0415 21.3342 24.7037 22.1687 24.6695 22.357C24.6567 22.4384 24.631 22.5045 24.6139 22.5045C24.5626 22.5045 24.4899 22.9371 24.4429 23.4968C24.4215 23.7767 24.4002 24.7078 24.4002 25.5729V27.135L24.289 27.3538C24.2249 27.4709 24.1265 27.6337 24.071 27.7151C24.0154 27.7965 23.8914 28.0611 23.7973 28.3003C23.7033 28.5394 23.6007 28.7939 23.5665 28.8651C23.4767 29.0737 23.3399 29.7251 23.2886 30.1881C23.2074 30.9768 23.2501 31.9029 23.3997 32.6051C23.5451 33.2768 23.9641 34.2436 24.3531 34.8135C24.4985 35.0272 25.0799 35.7345 25.1099 35.7345C25.1184 35.7345 25.2552 35.8516 25.4134 35.994C25.935 36.4571 26.7174 36.8387 27.4399 36.9863C27.9658 37.088 29.056 37.0626 29.4664 36.9303C29.6075 36.8845 29.7528 36.8438 29.7913 36.8285C29.8811 36.8082 30.672 36.4062 30.7832 36.3299C31.0098 36.1721 31.5442 35.7091 31.7665 35.4699C32.2624 34.9356 32.784 34.0248 33.0577 33.2106C33.4125 32.1522 33.4724 30.6359 33.203 29.3892C33.0961 28.8855 32.7028 27.9237 32.4377 27.5116L32.2325 27.1961L32.2111 25.2167C32.1855 22.993 32.1727 22.8506 31.8777 22.0822C31.3433 20.688 30.3899 19.7619 29.2313 19.4973C29.0773 19.4667 28.8935 19.4057 28.8166 19.3701C28.6712 19.2937 28.0555 19.2836 27.8418 19.3497ZM29.0218 20.9475C29.3039 21.0391 29.7229 21.263 29.8683 21.4105C30.3129 21.8481 30.4454 22.0364 30.6934 22.5961C30.9286 23.1304 30.9499 23.2983 30.9713 24.6264C30.9841 25.3083 30.9799 25.8629 30.967 25.8629C30.9499 25.8629 30.7533 25.751 30.5224 25.6136C29.1586 24.7994 27.4656 24.8045 26.0804 25.6289C25.8623 25.7561 25.6742 25.8629 25.6571 25.8629C25.6443 25.8629 25.64 25.3083 25.6486 24.6264C25.6699 23.4357 25.6742 23.3848 25.7896 23.0134C25.9649 22.4435 26.1701 22.0568 26.4865 21.6955C27.1406 20.9577 28.1154 20.6676 29.0218 20.9475ZM28.8208 26.5295C29.7101 26.672 30.4198 27.0994 31.0568 27.8779C31.51 28.4326 31.8606 29.1501 32.0145 29.8574C32.1 30.2441 32.1171 30.4273 32.1128 31.0531C32.1085 32.0861 32.0401 32.371 31.5356 33.4854C31.4416 33.689 30.8944 34.3861 30.5523 34.7372C30.4711 34.8186 30.2445 34.9763 30.0436 35.0832C29.8426 35.1901 29.6246 35.3122 29.5519 35.358C29.1757 35.5768 28.124 35.6582 27.5425 35.5106C27.0979 35.3987 26.3069 34.9763 26.0504 34.7117C25.4262 34.0604 25.1697 33.6839 24.8875 33.0224C24.6097 32.3558 24.5284 31.9742 24.4985 31.2058C24.46 30.1474 24.7251 29.145 25.2723 28.285C26.1146 26.962 27.4527 26.3005 28.8208 26.5295Z" fill="#BAFF00"/>
</g>
<defs>
<clipPath id="clip0_0_77">
<rect width="36.9231" height="32" fill="white" transform="translate(10 12)"/>
</clipPath>
</defs>
</svg>
